# xmcd
#
# Track frame offsets:
# 150
# 29941
# 44821
# 58396
# 75964
# 91332
# 120482
# 146662
# 162159
# 189270
# 210903
# 230532
# 248323
# 266776
# 288009
#
# Disc length: 4122 seconds
#
# Revision: 0
# Processed by: cddbd v1.4b42PL1 Copyright (c) Steve Scherf et al.
# Submitted via: Audion 2.5.0 (http://www.panic.com/audion/)
#
DISCID=cd10180f
DTITLE=Various Artist - Thecno
DYEAR=1900
DGENRE=
TTITLE0=culture beat
TTITLE1=tilt children
TTITLE2=Mortal Kombat(remix)
TTITLE3=Thecno children
TTITLE4=last resort
TTITLE5=M.K reptile
TTITLE6=Air
TTITLE7=M.K test your mind
TTITLE8=triller
TTITLE9=thecno stranger
TTITLE10=Angel
TTITLE11=angel(shaggy)
TTITLE12=When I look into youre eyes
TTITLE13=Angel
TTITLE14=Hercule track
EXTD=
EXTT0=
EXTT1=
EXTT2=
EXTT3=
EXTT4=
EXTT5=
EXTT6=
EXTT7=
EXTT8=
EXTT9=
EXTT10=
EXTT11=
EXTT12=
EXTT13=
EXTT14=
PLAYORDER=
